<svg width="21" height="24" viewBox="0 0 21 24" fill="none" xmlns="http://www.w3.org/2000/svg">
<mask id="path-1-inside-1_892_5948" fill="white">
<path d="M10.1914 0C15.82 0 20.3836 4.56281 20.3838 10.1914C20.3838 18.0818 13.8078 24 10.1914 24C6.57489 23.9996 0 17.7528 0 10.1914C0.000202383 4.56294 4.56294 0.000202387 10.1914 0Z"/>
</mask>
<path d="M10.1914 0C15.82 0 20.3836 4.56281 20.3838 10.1914C20.3838 18.0818 13.8078 24 10.1914 24C6.57489 23.9996 0 17.7528 0 10.1914C0.000202383 4.56294 4.56294 0.000202387 10.1914 0Z" fill="#25B26B"/>
<path d="M10.1914 0L10.1914 -1L10.1914 -1L10.1914 0ZM20.3838 10.1914L21.3838 10.1914L21.3838 10.1914L20.3838 10.1914ZM10.1914 24L10.1913 25H10.1914V24ZM0 10.1914L-1 10.1914V10.1914L0 10.1914ZM10.1914 0V1C15.2679 1 19.3836 5.1152 19.3838 10.1914L20.3838 10.1914L21.3838 10.1914C21.3836 4.01043 16.3722 -1 10.1914 -1V0ZM20.3838 10.1914L19.3838 10.1914C19.3838 13.8559 17.8549 17.0858 15.8818 19.4069C14.8965 20.5661 13.8166 21.4788 12.7934 22.0955C11.7542 22.7219 10.8463 23 10.1914 23V24V25C11.3447 25 12.615 24.5383 13.8259 23.8085C15.0528 23.0689 16.295 22.009 17.4057 20.7023C19.6247 18.0917 21.3838 14.4174 21.3838 10.1914L20.3838 10.1914ZM10.1914 24L10.1915 23C9.5491 22.9999 8.64715 22.7106 7.60368 22.0578C6.57848 21.4164 5.49544 20.4723 4.50672 19.2897C2.52365 16.9176 1 13.6849 1 10.1914L0 10.1914L-1 10.1914C-1 14.2593 0.763792 17.9307 2.97229 20.5725C4.07937 21.8967 5.31814 22.987 6.54288 23.7533C7.74935 24.5081 9.02545 24.9999 10.1913 25L10.1914 24ZM0 10.1914L1 10.1914C1.00018 5.11523 5.11523 1.00018 10.1914 1L10.1914 0L10.1914 -1C4.01065 -0.999778 -0.999778 4.01065 -1 10.1914L0 10.1914Z" fill="white" mask="url(#path-1-inside-1_892_5948)"/>
<path d="M9.86251 5.26074C9.16495 5.26074 8.49596 5.53785 8.00272 6.03109C7.50947 6.52434 7.23237 7.19332 7.23237 7.89088C7.23237 8.58843 7.50947 9.25742 8.00272 9.75067C8.49596 10.2439 9.16495 10.521 9.86251 10.521C10.5601 10.521 11.229 10.2439 11.7223 9.75067C12.2155 9.25742 12.4926 8.58843 12.4926 7.89088C12.4926 7.19332 12.2155 6.52434 11.7223 6.03109C11.229 5.53785 10.5601 5.26074 9.86251 5.26074ZM6.58075 11.1786C6.40756 11.1778 6.23591 11.2112 6.07568 11.277C5.91544 11.3427 5.76977 11.4394 5.64703 11.5616C5.52429 11.6838 5.42689 11.8291 5.36043 11.989C5.29397 12.1489 5.25976 12.3204 5.25977 12.4936C5.25977 13.6055 5.80749 14.4439 6.6636 14.9903C7.50656 15.5275 8.64278 15.7813 9.86251 15.7813C11.0822 15.7813 12.2185 15.5275 13.0614 14.9903C13.9175 14.4445 14.4652 13.6049 14.4652 12.4936C14.4652 12.1448 14.3267 11.8103 14.0801 11.5637C13.8334 11.3171 13.499 11.1786 13.1502 11.1786H6.58075Z" fill="white"/>
</svg>
