<svg width="183" height="55" viewBox="0 0 183 55" fill="none" xmlns="http://www.w3.org/2000/svg">
<path d="M16 15.0996C16 11.8827 17.2525 8.8585 19.5273 6.58366L22.5676 3.5434C27.1962 -1.08523 34.6858 -1.1508 39.3961 3.34402C41.6482 1.18559 44.5961 0 47.726 0C50.8559 0 53.9685 1.2525 56.242 3.52868L59.2809 6.5676C61.5557 8.84378 62.8082 11.868 62.8082 15.0849C62.8082 18.3018 61.6213 21.1654 59.4602 23.4188C61.5718 25.6616 62.7306 28.5774 62.7306 31.6698C62.7306 34.7623 61.4781 37.9109 59.2033 40.1858L47.9107 51.4783C43.2138 56.1739 35.5743 56.1739 30.8788 51.4783L19.5862 40.1858C17.31 37.9082 16.0575 34.884 16.0575 31.6671C16.0575 28.4502 17.2164 25.6562 19.3293 23.4135C17.1802 21.1627 16 18.2215 16 15.0996Z" fill="#FF5B00"/>
<g filter="url(#filter0_d_892_6827)">
<path d="M53.355 28.9856C49.7902 25.4208 44.9568 23.4189 39.916 23.4189H38.8468C33.806 23.4189 28.9727 25.4208 25.4079 28.9856C23.9265 30.4669 23.9265 32.8676 25.4079 34.3489L36.6991 45.6415C38.1804 47.1215 40.5811 47.1215 42.0624 45.6415L53.355 34.3489C54.8363 32.8676 54.8363 30.4669 53.355 28.9856ZM36.7259 33.4711L35.6955 34.5014C35.1977 34.9992 34.3922 34.9992 33.8944 34.5014L32.864 33.4711C32.3662 32.9733 32.3662 32.1677 32.864 31.6699L33.8944 30.6396C34.3922 30.1418 35.1977 30.1418 35.6955 30.6396L36.7259 31.6699C37.2237 32.1677 37.2237 32.9733 36.7259 33.4711ZM45.9203 33.4711L44.8899 34.5014C44.3921 34.9992 43.5865 34.9992 43.0887 34.5014L42.0584 33.4711C41.5606 32.9733 41.5606 32.1677 42.0584 31.6699L43.0887 30.6396C43.5865 30.1418 44.3921 30.1418 44.8899 30.6396L45.9203 31.6699C46.418 32.1677 46.418 32.9733 45.9203 33.4711Z" fill="white"/>
</g>
<g filter="url(#filter1_d_892_6827)">
<path d="M51.5863 17.1042L51.5823 17.1082C48.455 20.2408 44.2104 22.0004 39.7838 21.9991H39.0385C34.6226 21.9964 30.3874 20.2421 27.2642 17.1189C25.9822 15.8356 25.9822 13.7561 27.2642 12.4742L29.8963 9.84205C31.1783 8.56011 33.2577 8.56011 34.541 9.84205L39.4185 14.7196L44.3108 9.82867C45.5927 8.54539 47.6722 8.54539 48.9555 9.82867L51.5876 12.4608C52.8695 13.7427 52.8695 15.8222 51.5876 17.1055L51.5863 17.1042Z" fill="#FAC555"/>
</g>
<path d="M116.782 47.925L116.657 49H112.727L113.617 41.77H114.912L114.152 47.925H116.782ZM119.207 43.87L118.592 49H117.377L117.992 43.87H119.207ZM119.522 42.375C119.522 42.4817 119.499 42.5817 119.452 42.675C119.409 42.7683 119.35 42.85 119.277 42.92C119.204 42.99 119.12 43.0467 119.027 43.09C118.934 43.13 118.837 43.15 118.737 43.15C118.64 43.15 118.547 43.13 118.457 43.09C118.367 43.0467 118.287 42.99 118.217 42.92C118.147 42.85 118.09 42.7683 118.047 42.675C118.007 42.5817 117.987 42.4817 117.987 42.375C117.987 42.2683 118.009 42.1667 118.052 42.07C118.095 41.9733 118.152 41.89 118.222 41.82C118.292 41.7467 118.372 41.69 118.462 41.65C118.555 41.6067 118.65 41.585 118.747 41.585C118.847 41.585 118.944 41.6067 119.037 41.65C119.13 41.69 119.212 41.745 119.282 41.815C119.355 41.885 119.414 41.9683 119.457 42.065C119.5 42.1617 119.522 42.265 119.522 42.375ZM121.818 44.795L121.333 48.79L121.078 49.73C121.028 49.89 120.955 50.0133 120.858 50.1C120.761 50.19 120.623 50.235 120.443 50.235H119.948L120.603 44.795L120.208 44.725C120.131 44.7083 120.068 44.6767 120.018 44.63C119.968 44.58 119.95 44.5083 119.963 44.415L120.023 43.915H120.713L120.758 43.535C120.795 43.2417 120.871 42.9783 120.988 42.745C121.108 42.5117 121.258 42.3133 121.438 42.15C121.621 41.9867 121.831 41.8617 122.068 41.775C122.305 41.6883 122.56 41.645 122.833 41.645C123.046 41.645 123.243 41.6767 123.423 41.74L123.313 42.38C123.296 42.4567 123.25 42.5033 123.173 42.52C123.096 42.5333 123.01 42.54 122.913 42.54C122.78 42.54 122.656 42.5583 122.543 42.595C122.433 42.6317 122.335 42.6917 122.248 42.775C122.165 42.855 122.095 42.9617 122.038 43.095C121.985 43.225 121.946 43.385 121.923 43.575L121.883 43.915H123.033L122.918 44.795H121.818ZM125.637 44.66C125.47 44.66 125.315 44.695 125.172 44.765C125.028 44.8317 124.898 44.9267 124.782 45.05C124.668 45.1733 124.568 45.3217 124.482 45.495C124.398 45.665 124.332 45.8517 124.282 46.055C124.695 45.9983 125.027 45.9367 125.277 45.87C125.53 45.8 125.725 45.7267 125.862 45.65C125.998 45.57 126.088 45.485 126.132 45.395C126.178 45.3017 126.202 45.205 126.202 45.105C126.202 45.055 126.19 45.0033 126.167 44.95C126.147 44.8967 126.113 44.85 126.067 44.81C126.023 44.7667 125.965 44.7317 125.892 44.705C125.822 44.675 125.737 44.66 125.637 44.66ZM124.177 46.91C124.177 47.7167 124.518 48.12 125.202 48.12C125.348 48.12 125.478 48.1067 125.592 48.08C125.705 48.05 125.803 48.015 125.887 47.975C125.973 47.935 126.05 47.89 126.117 47.84C126.187 47.79 126.25 47.745 126.307 47.705C126.367 47.665 126.425 47.6317 126.482 47.605C126.538 47.575 126.6 47.56 126.667 47.56C126.707 47.56 126.745 47.57 126.782 47.59C126.822 47.61 126.857 47.6367 126.887 47.67L127.202 48.05C127.025 48.2267 126.852 48.38 126.682 48.51C126.512 48.64 126.338 48.7467 126.162 48.83C125.985 48.9133 125.798 48.975 125.602 49.015C125.405 49.055 125.192 49.075 124.962 49.075C124.662 49.075 124.39 49.025 124.147 48.925C123.903 48.8217 123.695 48.6783 123.522 48.495C123.348 48.3083 123.213 48.085 123.117 47.825C123.023 47.5617 122.977 47.2683 122.977 46.945C122.977 46.675 123.005 46.41 123.062 46.15C123.122 45.89 123.207 45.6433 123.317 45.41C123.427 45.1767 123.562 44.9617 123.722 44.765C123.882 44.5683 124.062 44.3983 124.262 44.255C124.465 44.1117 124.687 44 124.927 43.92C125.17 43.84 125.43 43.8 125.707 43.8C125.973 43.8 126.207 43.8383 126.407 43.915C126.61 43.9917 126.778 44.0917 126.912 44.215C127.048 44.335 127.15 44.47 127.217 44.62C127.283 44.77 127.317 44.9167 127.317 45.06C127.317 45.29 127.27 45.5 127.177 45.69C127.087 45.88 126.923 46.05 126.687 46.2C126.453 46.35 126.133 46.48 125.727 46.59C125.32 46.6967 124.803 46.7817 124.177 46.845V46.91ZM133.422 44.68C133.376 44.6767 133.331 44.675 133.287 44.675C133.247 44.6717 133.207 44.67 133.167 44.67C132.891 44.67 132.634 44.7333 132.397 44.86C132.161 44.9867 131.956 45.1583 131.782 45.375C131.612 45.5883 131.477 45.8383 131.377 46.125C131.281 46.4083 131.232 46.7083 131.232 47.025C131.232 47.385 131.289 47.6483 131.402 47.815C131.516 47.9817 131.671 48.065 131.867 48.065C132.004 48.065 132.137 48.0183 132.267 47.925C132.401 47.8283 132.526 47.6983 132.642 47.535C132.762 47.3683 132.871 47.1733 132.967 46.95C133.067 46.7267 133.154 46.4867 133.227 46.23L133.422 44.68ZM133.082 47.93C132.856 48.28 132.599 48.5583 132.312 48.765C132.029 48.9717 131.719 49.075 131.382 49.075C131.189 49.075 131.007 49.0367 130.837 48.96C130.671 48.8833 130.524 48.77 130.397 48.62C130.274 48.4667 130.176 48.2767 130.102 48.05C130.032 47.82 129.997 47.5517 129.997 47.245C129.997 46.9383 130.036 46.64 130.112 46.35C130.189 46.06 130.297 45.7883 130.437 45.535C130.581 45.2783 130.752 45.0433 130.952 44.83C131.152 44.6167 131.376 44.4333 131.622 44.28C131.872 44.1267 132.141 44.0083 132.427 43.925C132.717 43.8383 133.022 43.795 133.342 43.795C133.572 43.795 133.802 43.8117 134.032 43.845C134.266 43.8783 134.492 43.9383 134.712 44.025L134.097 49H133.442C133.286 49 133.179 48.9617 133.122 48.885C133.069 48.805 133.042 48.7067 133.042 48.59L133.082 47.93ZM136.577 47.8C136.691 47.9233 136.821 48.01 136.967 48.06C137.114 48.11 137.257 48.135 137.397 48.135C137.617 48.135 137.817 48.0667 137.997 47.93C138.177 47.7933 138.332 47.615 138.462 47.395C138.592 47.175 138.692 46.9283 138.762 46.655C138.832 46.3783 138.867 46.1017 138.867 45.825C138.867 45.465 138.807 45.1983 138.687 45.025C138.571 44.8483 138.407 44.76 138.197 44.76C138.061 44.76 137.922 44.8067 137.782 44.9C137.642 44.9933 137.507 45.1217 137.377 45.285C137.247 45.445 137.126 45.635 137.012 45.855C136.902 46.075 136.807 46.3117 136.727 46.565L136.577 47.8ZM136.852 45C137.099 44.63 137.377 44.3367 137.687 44.12C138.001 43.9 138.332 43.79 138.682 43.79C138.896 43.79 139.089 43.83 139.262 43.91C139.436 43.9867 139.584 44.1033 139.707 44.26C139.831 44.4167 139.926 44.615 139.992 44.855C140.059 45.095 140.092 45.3767 140.092 45.7C140.092 45.99 140.062 46.275 140.002 46.555C139.942 46.835 139.857 47.1 139.747 47.35C139.637 47.6 139.506 47.83 139.352 48.04C139.202 48.25 139.034 48.4317 138.847 48.585C138.661 48.7383 138.461 48.8583 138.247 48.945C138.037 49.0317 137.819 49.075 137.592 49.075C137.359 49.075 137.149 49.0333 136.962 48.95C136.779 48.8667 136.617 48.7533 136.477 48.61L136.222 50.675H135.022L135.852 43.865H136.477C136.607 43.865 136.707 43.8967 136.777 43.96C136.851 44.0233 136.887 44.125 136.887 44.265L136.852 45ZM141.968 47.8C142.081 47.9233 142.211 48.01 142.358 48.06C142.505 48.11 142.648 48.135 142.788 48.135C143.008 48.135 143.208 48.0667 143.388 47.93C143.568 47.7933 143.723 47.615 143.853 47.395C143.983 47.175 144.083 46.9283 144.153 46.655C144.223 46.3783 144.258 46.1017 144.258 45.825C144.258 45.465 144.198 45.1983 144.078 45.025C143.961 44.8483 143.798 44.76 143.588 44.76C143.451 44.76 143.313 44.8067 143.173 44.9C143.033 44.9933 142.898 45.1217 142.768 45.285C142.638 45.445 142.516 45.635 142.403 45.855C142.293 46.075 142.198 46.3117 142.118 46.565L141.968 47.8ZM142.243 45C142.49 44.63 142.768 44.3367 143.078 44.12C143.391 43.9 143.723 43.79 144.073 43.79C144.286 43.79 144.48 43.83 144.653 43.91C144.826 43.9867 144.975 44.1033 145.098 44.26C145.221 44.4167 145.316 44.615 145.383 44.855C145.45 45.095 145.483 45.3767 145.483 45.7C145.483 45.99 145.453 46.275 145.393 46.555C145.333 46.835 145.248 47.1 145.138 47.35C145.028 47.6 144.896 47.83 144.743 48.04C144.593 48.25 144.425 48.4317 144.238 48.585C144.051 48.7383 143.851 48.8583 143.638 48.945C143.428 49.0317 143.21 49.075 142.983 49.075C142.75 49.075 142.54 49.0333 142.353 48.95C142.17 48.8667 142.008 48.7533 141.868 48.61L141.613 50.675H140.413L141.243 43.865H141.868C141.998 43.865 142.098 43.8967 142.168 43.96C142.241 44.0233 142.278 44.125 142.278 44.265L142.243 45Z" fill="#828282"/>
<path d="M78.906 36V13.6H84.634V36H78.906ZM89.498 13.6H96.442L83.29 32.64L82.938 25.024L89.498 13.6ZM96.506 36H90.17L85.786 24.832L90.106 20.704L96.506 36ZM102.518 36.256C101.345 36.256 100.3 35.9893 99.3822 35.456C98.4862 34.9227 97.7822 34.1867 97.2702 33.248C96.7796 32.288 96.5342 31.2107 96.5342 30.016V19.872H101.814V28.768C101.814 29.5787 102.07 30.2507 102.582 30.784C103.094 31.3173 103.745 31.584 104.534 31.584C105.068 31.584 105.537 31.4667 105.942 31.232C106.348 30.976 106.668 30.6347 106.902 30.208C107.137 29.7813 107.254 29.3013 107.254 28.768V19.872H112.534V36H107.254V34.144C106.785 34.784 106.134 35.296 105.302 35.68C104.47 36.064 103.542 36.256 102.518 36.256ZM114.386 31.648L122.642 24.224H114.962V19.872H128.818V24.224L120.626 31.648H129.298V36H114.386V31.648ZM131.663 31.648L139.919 24.224H132.239V19.872H146.095V24.224L137.903 31.648H146.575V36H131.663V31.648ZM153.931 35.68L147.499 19.872H152.843L156.363 29.248L159.851 19.872H165.227L156.427 42.528H151.403L153.931 35.68Z" fill="#1A1A1A"/>
<defs>
<filter id="filter0_d_892_6827" x="20.2969" y="21.4189" width="38.1699" height="31.333" filterUnits="userSpaceOnUse" color-interpolation-filters="sRGB">
<feFlood flood-opacity="0" result="BackgroundImageFix"/>
<feColorMatrix in="SourceAlpha" type="matrix" values="0 0 0 0 0 0 0 0 0 0 0 0 0 0 0 0 0 0 127 0" result="hardAlpha"/>
<feOffset dy="2"/>
<feGaussianBlur stdDeviation="2"/>
<feColorMatrix type="matrix" values="0 0 0 0 0.0980392 0 0 0 0 0.607843 0 0 0 0 0.203922 0 0 0 0.1 0"/>
<feBlend mode="normal" in2="BackgroundImageFix" result="effect1_dropShadow_892_6827"/>
<feBlend mode="normal" in="SourceGraphic" in2="effect1_dropShadow_892_6827" result="shape"/>
</filter>
<filter id="filter1_d_892_6827" x="22.3027" y="6.86621" width="34.2461" height="21.1328" filterUnits="userSpaceOnUse" color-interpolation-filters="sRGB">
<feFlood flood-opacity="0" result="BackgroundImageFix"/>
<feColorMatrix in="SourceAlpha" type="matrix" values="0 0 0 0 0 0 0 0 0 0 0 0 0 0 0 0 0 0 127 0" result="hardAlpha"/>
<feOffset dy="2"/>
<feGaussianBlur stdDeviation="2"/>
<feColorMatrix type="matrix" values="0 0 0 0 0.0980392 0 0 0 0 0.607843 0 0 0 0 0.203922 0 0 0 0.1 0"/>
<feBlend mode="normal" in2="BackgroundImageFix" result="effect1_dropShadow_892_6827"/>
<feBlend mode="normal" in="SourceGraphic" in2="effect1_dropShadow_892_6827" result="shape"/>
</filter>
</defs>
</svg>
