<svg width="21" height="24" viewBox="0 0 21 24" fill="none" xmlns="http://www.w3.org/2000/svg">
<mask id="path-1-inside-1_892_5951" fill="white">
<path d="M10.1914 0C15.82 0 20.3836 4.56281 20.3838 10.1914C20.3838 18.0818 13.8078 24 10.1914 24C6.57489 23.9996 0 18.0815 0 10.1914C0.000202383 4.56294 4.56294 0.000202387 10.1914 0Z"/>
</mask>
<path d="M10.1914 0C15.82 0 20.3836 4.56281 20.3838 10.1914C20.3838 18.0818 13.8078 24 10.1914 24C6.57489 23.9996 0 18.0815 0 10.1914C0.000202383 4.56294 4.56294 0.000202387 10.1914 0Z" fill="#ED1717"/>
<path d="M10.1914 0L10.1914 -1L10.1914 -1L10.1914 0ZM20.3838 10.1914L21.3838 10.1914L21.3838 10.1914L20.3838 10.1914ZM10.1914 24L10.1913 25H10.1914V24ZM0 10.1914L-1 10.1914V10.1914L0 10.1914ZM10.1914 0V1C15.2679 1 19.3836 5.1152 19.3838 10.1914L20.3838 10.1914L21.3838 10.1914C21.3836 4.01043 16.3722 -1 10.1914 -1V0ZM20.3838 10.1914H19.3838C19.3838 13.8559 17.8549 17.0858 15.8818 19.4069C14.8965 20.5661 13.8166 21.4788 12.7934 22.0955C11.7542 22.7219 10.8463 23 10.1914 23V24V25C11.3447 25 12.615 24.5383 13.8259 23.8085C15.0528 23.0689 16.295 22.009 17.4057 20.7023C19.6247 18.0917 21.3838 14.4174 21.3838 10.1914H20.3838ZM10.1914 24L10.1915 23C9.53654 22.9999 8.62866 22.7218 7.58955 22.0954C6.56649 21.4786 5.48666 20.5659 4.50147 19.4067C2.52866 17.0856 1 13.8558 1 10.1914L0 10.1914L-1 10.1914C-1 14.4172 0.758787 18.0915 2.97754 20.702C4.08815 22.0087 5.33014 23.0686 6.55701 23.8082C7.76784 24.5381 9.03801 24.9999 10.1913 25L10.1914 24ZM0 10.1914L1 10.1914C1.00018 5.11523 5.11523 1.00018 10.1914 1L10.1914 0L10.1914 -1C4.01065 -0.999778 -0.999778 4.01065 -1 10.1914L0 10.1914Z" fill="white" mask="url(#path-1-inside-1_892_5951)"/>
<path d="M10.5214 5.26074C9.99821 5.26074 9.49647 5.45912 9.12654 5.81224C8.7566 6.16536 8.54877 6.64429 8.54877 7.14368V7.77133H6.57617V14.4662H14.4666V7.77133H12.494V7.14368C12.494 6.64429 12.2862 6.16536 11.9162 5.81224C11.5463 5.45912 11.0445 5.26074 10.5214 5.26074ZM11.6173 7.14368V7.77133H9.42549V7.14368C9.42549 6.86624 9.54095 6.60017 9.74647 6.40399C9.95199 6.20782 10.2307 6.0976 10.5214 6.0976C10.812 6.0976 11.0908 6.20782 11.2963 6.40399C11.5018 6.60017 11.6173 6.86624 11.6173 7.14368ZM8.54877 9.86348V8.60819H9.42549V9.86348H8.54877ZM11.6173 9.86348V8.60819H12.494V9.86348H11.6173Z" fill="white"/>
</svg>
