<svg width="21" height="24" viewBox="0 0 21 24" fill="none" xmlns="http://www.w3.org/2000/svg">
<mask id="path-1-inside-1_892_5950" fill="white">
<path d="M10.1914 0C15.82 0 20.3836 4.56281 20.3838 10.1914C20.3838 18.0818 13.8078 24 10.1914 24C6.57489 23.9996 0 17.7528 0 10.1914C0.000202383 4.56294 4.56294 0.000202387 10.1914 0Z"/>
</mask>
<path d="M10.1914 0C15.82 0 20.3836 4.56281 20.3838 10.1914C20.3838 18.0818 13.8078 24 10.1914 24C6.57489 23.9996 0 17.7528 0 10.1914C0.000202383 4.56294 4.56294 0.000202387 10.1914 0Z" fill="#363636"/>
<path d="M10.1914 0L10.1914 -1L10.1914 -1L10.1914 0ZM20.3838 10.1914L21.3838 10.1914L21.3838 10.1914L20.3838 10.1914ZM10.1914 24L10.1913 25H10.1914V24ZM0 10.1914L-1 10.1914V10.1914L0 10.1914ZM10.1914 0V1C15.2679 1 19.3836 5.1152 19.3838 10.1914L20.3838 10.1914L21.3838 10.1914C21.3836 4.01043 16.3722 -1 10.1914 -1V0ZM20.3838 10.1914L19.3838 10.1914C19.3838 13.8559 17.8549 17.0858 15.8818 19.4069C14.8965 20.5661 13.8166 21.4788 12.7934 22.0955C11.7542 22.7219 10.8463 23 10.1914 23V24V25C11.3447 25 12.615 24.5383 13.8259 23.8085C15.0528 23.0689 16.295 22.009 17.4057 20.7023C19.6247 18.0917 21.3838 14.4174 21.3838 10.1914L20.3838 10.1914ZM10.1914 24L10.1915 23C9.5491 22.9999 8.64715 22.7106 7.60368 22.0578C6.57848 21.4164 5.49544 20.4723 4.50672 19.2897C2.52365 16.9176 1 13.6849 1 10.1914L0 10.1914L-1 10.1914C-1 14.2593 0.763792 17.9307 2.97229 20.5725C4.07937 21.8967 5.31814 22.987 6.54288 23.7533C7.74935 24.5081 9.02545 24.9999 10.1913 25L10.1914 24ZM0 10.1914L1 10.1914C1.00018 5.11523 5.11523 1.00018 10.1914 1L10.1914 0L10.1914 -1C4.01065 -0.999778 -0.999778 4.01065 -1 10.1914L0 10.1914Z" fill="white" mask="url(#path-1-inside-1_892_5950)"/>
<path d="M15.0715 8.68632L14.8194 7.83548L14.2363 6.21069C14.1388 5.93114 13.9554 5.68771 13.7109 5.51362C13.4634 5.33891 13.1654 5.24557 12.8599 5.24709H6.83451C6.52858 5.24651 6.23008 5.33901 5.98056 5.51173C5.73104 5.68444 5.54293 5.92877 5.44241 6.21069L4.8488 7.85598L4.60715 8.68632C4.6023 8.72204 4.6023 8.75823 4.60715 8.79396C4.60892 9.15213 4.71058 9.50309 4.90122 9.80919C5.09186 10.1153 5.36429 10.365 5.68931 10.5315V13.0071C5.68791 13.1973 5.72527 13.3859 5.79922 13.5619C5.87317 13.7379 5.98223 13.8978 6.12007 14.0322C6.39982 14.302 6.77741 14.453 7.17071 14.4525H12.571C12.765 14.4532 12.9573 14.4164 13.1367 14.3443C13.3161 14.2721 13.4791 14.1661 13.6163 14.0322C13.7536 13.8983 13.8623 13.7393 13.9362 13.5642C14.0101 13.3892 14.0478 13.2016 14.0471 13.0123V10.5366C14.3303 10.3941 14.5737 10.1866 14.7563 9.93182C14.9968 9.60083 15.1254 9.20482 15.1241 8.79908C15.1097 8.76018 15.0921 8.72247 15.0715 8.68632ZM11.4521 12.9918H8.21085C8.07152 12.9918 7.9379 12.9378 7.83939 12.8416C7.74087 12.7455 7.68553 12.6151 7.68553 12.4792C7.68553 12.3433 7.74087 12.2129 7.83939 12.1168C7.9379 12.0207 8.07152 11.9667 8.21085 11.9667H11.4521C11.5914 11.9667 11.725 12.0207 11.8235 12.1168C11.922 12.2129 11.9774 12.3433 11.9774 12.4792C11.9774 12.6151 11.922 12.7455 11.8235 12.8416C11.725 12.9378 11.5914 12.9918 11.4521 12.9918ZM14.0787 9.48078C13.9305 9.68529 13.7215 9.83956 13.4798 9.92157C13.2978 9.98176 13.1038 9.99874 12.9138 9.97111C12.7237 9.94347 12.5432 9.87202 12.3871 9.76268C12.2301 9.65452 12.1012 9.51192 12.0109 9.34635C11.9206 9.18078 11.8713 8.99685 11.8671 8.80933C11.8671 8.70738 11.8256 8.6096 11.7517 8.53751C11.6778 8.46542 11.5776 8.42492 11.4731 8.42492C11.3686 8.42492 11.2684 8.46542 11.1945 8.53751C11.1206 8.6096 11.0791 8.70738 11.0791 8.80933V8.83496C11.0752 8.96438 11.0504 9.09238 11.0055 9.21425C10.9174 9.44548 10.76 9.64549 10.5538 9.78831C10.3504 9.93165 10.1059 10.0088 9.8551 10.0087C9.60044 10.0092 9.35203 9.93184 9.14474 9.78751C8.93746 9.64318 8.78172 9.43912 8.69939 9.204C8.65113 9.08486 8.62618 8.95794 8.62585 8.82983C8.62585 8.72788 8.58434 8.6301 8.51045 8.55801C8.43656 8.48592 8.33635 8.44542 8.23186 8.44542C8.12737 8.44542 8.02715 8.48592 7.95327 8.55801C7.87938 8.6301 7.83787 8.72788 7.83787 8.82983C7.83361 9.01807 7.78438 9.20273 7.6941 9.36913C7.60381 9.53552 7.47496 9.67906 7.3178 9.78831C7.11059 9.93182 6.86273 10.0088 6.60862 10.0087C6.47085 10.0048 6.33447 9.98064 6.20412 9.93695C5.96393 9.85677 5.75606 9.70421 5.61051 9.50128C5.47622 9.31435 5.39966 9.09379 5.38988 8.86571L5.60526 8.10713L6.18836 6.48747C6.23536 6.35551 6.32337 6.24114 6.44013 6.1603C6.55689 6.07945 6.69659 6.03614 6.83976 6.03642H12.8652C13.007 6.03847 13.1462 6.08153 13.2644 6.15943C13.3795 6.24144 13.4656 6.35574 13.5113 6.48747L14.0892 8.08663L14.3151 8.86571C14.2931 9.08918 14.2076 9.30221 14.0682 9.48078H14.0787Z" fill="white"/>
</svg>
